<svg width="101" height="56" viewBox="0 0 101 56" fill="none" xmlns="http://www.w3.org/2000/svg">
<path d="M0 18.3896L30.0097 0.738365C30.0097 0.738365 35.8916 -2.20509 41.1877 3.68182L10.5922 21.9189C10.5922 21.9189 3.52916 25.4482 0 18.3896Z" fill="#FBD044"/>
<path d="M63.543 25.4483L36.4766 9.55932C36.4766 9.55932 33.5333 6.61587 41.1822 3.67714L61.776 15.4462C61.776 15.4462 67.6579 18.9755 63.543 25.4483Z" fill="#004E50"/>
<path d="M49.4277 1.91481H59.1365L58.8435 7.21113C58.8435 7.21113 58.253 10.7404 54.2845 11.1609L49.4325 8.38757V1.91481H49.4277Z" fill="#004E50"/>
<path d="M20.0156 54.2827V18.6825L47.0819 18.3896V25.4482H28.4015L28.255 33.1021H45.3197V41.3372H28.4015V54.2827H20.0156Z" fill="#004E50"/>
<path d="M50.7734 29.8705H58.5782V55.5489H50.7734V29.8705Z" fill="black"/>
<path d="M76.8617 55.8938C75.1798 55.8938 73.5546 55.5111 71.9814 54.7505V55.5489H64.5215V29.8705H71.9814V37.0945C73.5168 36.2582 75.1279 35.8425 76.8098 35.8425C78.4917 35.8425 79.9657 36.0881 81.2366 36.5842C82.5074 37.0803 83.5941 37.7654 84.5012 38.6347C86.3768 40.4726 87.3122 42.8255 87.3122 45.6933C87.3122 48.5612 86.3862 50.9849 84.5342 52.8984C82.6208 54.8969 80.0649 55.8938 76.857 55.8938H76.8617ZM76.805 37.1654C75.0145 37.1654 73.4034 37.6614 71.9767 38.6536V53.2055C73.5593 54.1032 75.3405 54.5473 77.3106 54.5473H77.783C77.9295 54.5473 78.0665 54.5331 78.1987 54.5095V37.2693C77.7405 37.1984 77.2728 37.1606 76.8003 37.1606L76.805 37.1654Z" fill="black"/>
<path d="M95.774 32.9935C94.5268 32.9935 93.5535 32.7147 92.8543 32.1572C92.1504 31.5997 91.8008 30.8674 91.8008 29.9603C91.8008 29.1996 92.1882 28.5429 92.963 27.9995C93.785 27.4184 94.6543 27.1302 95.5756 27.1302C96.4969 27.1302 97.2055 27.22 97.7063 27.4042C98.2071 27.5838 98.6323 27.82 98.9867 28.1129C99.6859 28.7035 100.04 29.3933 100.04 30.1823C100.04 30.9713 99.6434 31.6328 98.8449 32.1808C98.0465 32.7242 97.026 32.9982 95.7788 32.9982L95.774 32.9935ZM91.9614 36.1684H99.7662V55.5489H91.9614V36.1684Z" fill="black"/>
</svg>
